<?xml version="1.0" standalone="no"?><!DOCTYPE svg PUBLIC "-//W3C//DTD SVG 1.1//EN" "http://www.w3.org/Graphics/SVG/1.1/DTD/svg11.dtd"><svg t="1526634413824" class="icon" style="" viewBox="0 0 1024 1024" version="1.1" xmlns="http://www.w3.org/2000/svg" p-id="3323" xmlns:xlink="http://www.w3.org/1999/xlink" width="200" height="200"><defs><style type="text/css"></style></defs><path d="M901.89824 125.31712H122.88c-67.75808 0-122.88 55.12192-122.88 122.88v552.97024c0 67.75808 55.12192 122.88 122.88 122.88h779.01824c67.75808 0 122.88-55.12192 122.88-122.88V248.19712c0-67.74784-55.12192-122.88-122.88-122.88z m81.92 675.85024c0 45.16864-36.75136 81.92-81.92 81.92H122.88c-45.16864 0-81.92-36.75136-81.92-81.92V248.19712c0-45.16864 36.75136-81.92 81.92-81.92h779.01824c45.16864 0 81.92 36.75136 81.92 81.92v552.97024z" fill="" p-id="3324"></path><path d="M527.7184 502.43584a21.7088 21.7088 0 0 1-30.65856 0L206.00832 211.39456l-28.95872 28.95872 291.05152 291.05152c12.21632 12.20608 28.25216 18.31936 44.288 18.31936s32.08192-6.11328 44.288-18.31936l291.05152-291.05152-28.95872-28.95872-291.05152 291.04128z" fill="" p-id="3325"></path></svg>